<svg width="185" height="290" viewBox="0 0 185 290" fill="none" xmlns="http://www.w3.org/2000/svg">
<g filter="url(#filter0_d_145_8590)">
<path d="M0 283H14.2308V268.85H0V283ZM14.2308 283H28.4615V268.85H14.2308V283ZM28.4615 283H42.6923V268.85H28.4615V283ZM42.6923 283H56.9231V268.85H42.6923V283ZM42.6923 268.85H56.9231V254.7H42.6923V268.85ZM42.6923 254.7H56.9231V240.55H42.6923V254.7ZM42.6923 240.55H56.9231V226.4H42.6923V240.55ZM28.4615 240.55H42.6923V226.4H28.4615V240.55ZM28.4615 254.7H42.6923V240.55H28.4615V254.7ZM14.2308 254.7H28.4615V240.55H14.2308V254.7ZM14.2308 268.85H28.4615V254.7H14.2308V268.85ZM0 268.85H14.2308V254.7H0V268.85ZM28.4615 268.85H42.6923V254.7H28.4615V268.85ZM0 254.7H14.2308V240.55H0V254.7ZM0 240.55H14.2308V226.4H0V240.55ZM0 226.4H14.2308V212.25H0V226.4ZM0 212.25H14.2308V198.1H0V212.25ZM14.2308 212.25H28.4615V198.1H14.2308V212.25ZM14.2308 226.4H28.4615V212.25H14.2308V226.4ZM14.2308 240.55H28.4615V226.4H14.2308V240.55ZM170.769 283H185V268.85H170.769V283ZM156.538 283H170.769V268.85H156.538V283ZM142.308 283H156.538V268.85H142.308V283ZM128.077 283H142.308V268.85H128.077V283ZM128.077 268.85H142.308V254.7H128.077V268.85ZM128.077 254.7H142.308V240.55H128.077V254.7ZM128.077 240.55H142.308V226.4H128.077V240.55ZM128.077 226.4H142.308V212.25H128.077V226.4ZM142.308 226.4H156.538V212.25H142.308V226.4ZM156.538 226.4H170.769V212.25H156.538V226.4ZM170.769 226.4H185V212.25H170.769V226.4ZM170.769 240.55H185V226.4H170.769V240.55ZM170.769 254.7H185V240.55H170.769V254.7ZM170.769 268.85H185V254.7H170.769V268.85ZM156.538 268.85H170.769V254.7H156.538V268.85ZM142.308 254.7H156.538V240.55H142.308V254.7ZM142.308 240.55H156.538V226.4H142.308V240.55ZM156.538 240.55H170.769V226.4H156.538V240.55ZM156.538 254.7H170.769V240.55H156.538V254.7ZM142.308 268.85H156.538V254.7H142.308V268.85ZM170.769 212.25H185V198.1H170.769V212.25ZM156.538 212.25H170.769V198.1H156.538V212.25ZM142.308 212.25H156.538V198.1H142.308V212.25ZM128.077 212.25H142.308V198.1H128.077V212.25ZM113.846 212.25H128.077V198.1H113.846V212.25ZM113.846 226.4H128.077V212.25H113.846V226.4ZM99.6154 212.25H113.846V198.1H99.6154V212.25ZM99.6154 198.1H113.846V183.95H99.6154V198.1ZM113.846 198.1H128.077V183.95H113.846V198.1ZM128.077 198.1H142.308V183.95H128.077V198.1ZM142.308 198.1H156.538V183.95H142.308V198.1ZM156.538 198.1H170.769V183.95H156.538V198.1ZM85.3846 198.1H99.6154V183.95H85.3846V198.1ZM71.1538 198.1H85.3846V183.95H71.1538V198.1ZM56.9231 198.1H71.1538V183.95H56.9231V198.1ZM42.6923 198.1H56.9231V183.95H42.6923V198.1ZM28.4615 198.1H42.6923V183.95H28.4615V198.1ZM14.2308 198.1H28.4615V183.95H14.2308V198.1ZM28.4615 212.25H42.6923V198.1H28.4615V212.25ZM28.4615 226.4H42.6923V212.25H28.4615V226.4ZM42.6923 226.4H56.9231V212.25H42.6923V226.4ZM56.9231 226.4H71.1538V212.25H56.9231V226.4ZM56.9231 212.25H71.1538V198.1H56.9231V212.25ZM71.1538 212.25H85.3846V198.1H71.1538V212.25ZM42.6923 212.25H56.9231V198.1H42.6923V212.25ZM28.4615 183.95H42.6923V169.8H28.4615V183.95ZM42.6923 183.95H56.9231V169.8H42.6923V183.95ZM56.9231 183.95H71.1538V169.8H56.9231V183.95ZM71.1538 183.95H85.3846V169.8H71.1538V183.95ZM85.3846 183.95H99.6154V169.8H85.3846V183.95ZM99.6154 183.95H113.846V169.8H99.6154V183.95ZM113.846 183.95H128.077V169.8H113.846V183.95ZM128.077 183.95H142.308V169.8H128.077V183.95ZM142.308 183.95H156.538V169.8H142.308V183.95ZM128.077 169.8H142.308V155.65H128.077V169.8ZM113.846 169.8H128.077V155.65H113.846V169.8ZM99.6154 169.8H113.846V155.65H99.6154V169.8ZM85.3846 169.8H99.6154V155.65H85.3846V169.8ZM71.1538 169.8H85.3846V155.65H71.1538V169.8ZM56.9231 169.8H71.1538V155.65H56.9231V169.8ZM42.6923 169.8H56.9231V155.65H42.6923V169.8ZM56.9231 155.65H71.1538V141.5H56.9231V155.65ZM71.1538 155.65H85.3846V141.5H71.1538V155.65ZM85.3846 155.65H99.6154V141.5H85.3846V155.65ZM99.6154 155.65H113.846V141.5H99.6154V155.65ZM113.846 155.65H128.077V141.5H113.846V155.65ZM128.077 141.5H142.308V127.35H128.077V141.5ZM113.846 141.5H128.077V127.35H113.846V141.5ZM99.6154 141.5H113.846V127.35H99.6154V141.5ZM85.3846 141.5H99.6154V127.35H85.3846V141.5ZM71.1538 141.5H85.3846V127.35H71.1538V141.5ZM56.9231 141.5H71.1538V127.35H56.9231V141.5ZM42.6923 141.5H56.9231V127.35H42.6923V141.5ZM42.6923 127.35H56.9231V113.2H42.6923V127.35ZM28.4615 127.35H42.6923V113.2H28.4615V127.35ZM56.9231 127.35H71.1538V113.2H56.9231V127.35ZM71.1538 113.2H85.3846V99.05H71.1538V113.2ZM85.3846 113.2H99.6154V99.05H85.3846V113.2ZM99.6154 113.2H113.846V99.05H99.6154V113.2ZM113.846 113.2H128.077V99.05H113.846V113.2ZM128.077 113.2H142.308V99.05H128.077V113.2ZM128.077 127.35H142.308V113.2H128.077V127.35ZM142.308 127.35H156.538V113.2H142.308V127.35ZM113.846 127.35H128.077V113.2H113.846V127.35ZM99.6154 127.35H113.846V113.2H99.6154V127.35ZM85.3846 127.35H99.6154V113.2H85.3846V127.35ZM71.1538 127.35H85.3846V113.2H71.1538V127.35ZM142.308 113.2H156.538V99.05H142.308V113.2ZM156.538 113.2H170.769V99.05H156.538V113.2ZM156.538 99.05H170.769V84.9H156.538V99.05ZM170.769 99.05H185V84.9H170.769V99.05ZM142.308 99.05H156.538V84.9H142.308V99.05ZM128.077 99.05H142.308V84.9H128.077V99.05ZM113.846 99.05H128.077V84.9H113.846V99.05ZM99.6154 99.05H113.846V84.9H99.6154V99.05ZM113.846 84.9H128.077V70.75H113.846V84.9ZM128.077 84.9H142.308V70.75H128.077V84.9ZM142.308 84.9H156.538V70.75H142.308V84.9ZM156.538 84.9H170.769V70.75H156.538V84.9ZM170.769 84.9H185V70.75H170.769V84.9ZM170.769 56.6H185V42.45H170.769V56.6ZM170.769 42.45H185V28.3H170.769V42.45ZM170.769 28.3H185V14.15H170.769V28.3ZM170.769 14.15H185V0H170.769V14.15ZM156.538 56.6H170.769V42.45H156.538V56.6ZM156.538 70.75H170.769V56.6H156.538V70.75ZM142.308 70.75H156.538V56.6H142.308V70.75ZM170.769 70.75H185V56.6H170.769V70.75ZM128.077 70.75H142.308V56.6H128.077V70.75ZM128.077 56.6H142.308V42.45H128.077V56.6ZM128.077 42.45H142.308V28.3H128.077V42.45ZM128.077 28.3H142.308V14.15H128.077V28.3ZM142.308 28.3H156.538V14.15H142.308V28.3ZM142.308 14.15H156.538V0H142.308V14.15ZM156.538 14.15H170.769V0H156.538V14.15ZM128.077 14.15H142.308V0H128.077V14.15ZM156.538 28.3H170.769V14.15H156.538V28.3ZM156.538 42.45H170.769V28.3H156.538V42.45ZM142.308 42.45H156.538V28.3H142.308V42.45ZM142.308 56.6H156.538V42.45H142.308V56.6ZM0 14.15H14.2308V0H0V14.15ZM0 28.3H14.2308V14.15H0V28.3ZM0 42.45H14.2308V28.3H0V42.45ZM0 56.6H14.2308V42.45H0V56.6ZM0 70.75H14.2308V56.6H0V70.75ZM0 84.9H14.2308V70.75H0V84.9ZM0 99.05H14.2308V84.9H0V99.05ZM14.2308 99.05H28.4615V84.9H14.2308V99.05ZM14.2308 113.2H28.4615V99.05H14.2308V113.2ZM28.4615 113.2H42.6923V99.05H28.4615V113.2ZM42.6923 113.2H56.9231V99.05H42.6923V113.2ZM56.9231 113.2H71.1538V99.05H56.9231V113.2ZM71.1538 99.05H85.3846V84.9H71.1538V99.05ZM56.9231 99.05H71.1538V84.9H56.9231V99.05ZM56.9231 84.9H71.1538V70.75H56.9231V84.9ZM42.6923 84.9H56.9231V70.75H42.6923V84.9ZM42.6923 70.75H56.9231V56.6H42.6923V70.75ZM42.6923 56.6H56.9231V42.45H42.6923V56.6ZM42.6923 42.45H56.9231V28.3H42.6923V42.45ZM42.6923 28.3H56.9231V14.15H42.6923V28.3ZM28.4615 28.3H42.6923V14.15H28.4615V28.3ZM28.4615 14.15H42.6923V0H28.4615V14.15ZM14.2308 14.15H28.4615V0H14.2308V14.15ZM42.6923 14.15H56.9231V0H42.6923V14.15ZM14.2308 28.3H28.4615V14.15H14.2308V28.3ZM14.2308 42.45H28.4615V28.3H14.2308V42.45ZM14.2308 56.6H28.4615V42.45H14.2308V56.6ZM14.2308 70.75H28.4615V56.6H14.2308V70.75ZM28.4615 70.75H42.6923V56.6H28.4615V70.75ZM28.4615 84.9H42.6923V70.75H28.4615V84.9ZM28.4615 99.05H42.6923V84.9H28.4615V99.05ZM42.6923 99.05H56.9231V84.9H42.6923V99.05ZM14.2308 84.9H28.4615V70.75H14.2308V84.9ZM28.4615 56.6H42.6923V42.45H28.4615V56.6ZM28.4615 42.45H42.6923V28.3H28.4615V42.45Z" fill="url(#paint0_linear_145_8590)" fill-opacity="0.9" shape-rendering="crispEdges"/>
</g>
<defs>
<filter id="filter0_d_145_8590" x="0" y="0" width="185" height="289.529" filterUnits="userSpaceOnUse" color-interpolation-filters="sRGB">
<feFlood flood-opacity="0" result="BackgroundImageFix"/>
<feColorMatrix in="SourceAlpha" type="matrix" values="0 0 0 0 0 0 0 0 0 0 0 0 0 0 0 0 0 0 127 0" result="hardAlpha"/>
<feMorphology radius="6.47079" operator="erode" in="SourceAlpha" result="effect1_dropShadow_145_8590"/>
<feOffset dy="10"/>
<feGaussianBlur stdDeviation="1.5"/>
<feComposite in2="hardAlpha" operator="out"/>
<feColorMatrix type="matrix" values="0 0 0 0 0.272198 0 0 0 0 0.0718725 0 0 0 0 0 0 0 0 0.53 0"/>
<feBlend mode="normal" in2="BackgroundImageFix" result="effect1_dropShadow_145_8590"/>
<feBlend mode="normal" in="SourceGraphic" in2="effect1_dropShadow_145_8590" result="shape"/>
</filter>
<linearGradient id="paint0_linear_145_8590" x1="-2.77148e-06" y1="-9.44694e-05" x2="184.87" y2="283.1" gradientUnits="userSpaceOnUse">
<stop offset="0.00961538" stop-color="#F7DD37"/>
<stop offset="1" stop-color="white"/>
</linearGradient>
</defs>
</svg>
